<?xml version="1.0" encoding="utf-8"?>
<!-- Generator: Adobe Illustrator 21.1.0, SVG Export Plug-In . SVG Version: 6.00 Build 0)  -->
<svg version="1.1" xmlns="http://www.w3.org/2000/svg" xmlns:xlink="http://www.w3.org/1999/xlink" x="0px" y="0px"
	 viewBox="0 0 841.9 130.4" style="enable-background:new 0 0 841.9 130.4;" xml:space="preserve">
<style type="text/css">
	.st0{fill:#575757;}
	.st1{fill:#069339;}
	.st2{display:none;}
	.st3{display:inline;}
	.st4{fill:#5A5A59;}
	.st5{fill:#9D9D9C;}
</style>
<g id="Ebene_1">
	<g>
		<path class="st0" d="M760.5,84.2c0,10.9-2.9,18.9-8.8,24.1c-5.9,5.1-14.1,8.2-24.7,8.2c-8.3,0-12.9-1-17-2
			c-4.2-1-10.3-3.5-13.3-5.5l4.2-14.9c2.3,1.2,8.8,3.6,11.8,4.5c3,0.9,6.8,1.9,11.3,1.9c6.8,0,11.4-2,13.9-4.9
			c2.4-3,3.7-7.1,3.7-12.4v-4.8h-0.6c-3.5,4.7-9.7,7.1-18.6,7.1c-9.7,0-16.9-3-21.7-9c-4.8-6-7.1-15.4-7.1-28.2
			c0-13.4,3.2-23.5,9.6-30.4c6.4-6.9,15.7-10.3,27.9-10.3c6.4,0,12.1,0.4,17.2,1.3c5,0.9,9.2,1.9,12.4,3.1V84.2z M727.5,69.8
			c3.8,0,6.7-0.8,8.8-2.6c2-1.7,3.6-4.2,4.7-7.6V25.8c-3.1-1.3-7-1.9-11.5-1.9c-5,0-8.9,1.9-11.7,5.6c-2.8,3.8-4.2,9.7-4.2,17.9
			c0,7.3,1.2,12.9,3.6,16.6C719.6,67.9,723,69.8,727.5,69.8z"/>
		<path class="st1" d="M464.9,83.7c0,10.9-2.9,18.9-8.8,24.1c-5.9,5.1-14.1,8.2-24.7,8.2c-8.3,0-12.9-1-17-2
			c-4.2-1-10.3-3.5-13.3-5.5l4.2-14.9c2.3,1.2,8.8,3.6,11.8,4.5c3,0.9,6.8,1.9,11.3,1.9c6.8,0,11.4-2,13.9-4.9
			c2.4-3,3.7-7.1,3.7-12.4v-4.8h-0.6c-3.5,4.7-9.7,7.1-18.6,7.1c-9.7,0-16.9-3-21.7-9c-4.8-6-7.1-15.4-7.1-28.2
			c0-13.4,3.2-23.5,9.6-30.4c6.4-6.9,15.7-10.3,27.9-10.3c6.4,0,12.1,0.4,17.2,1.3c5,0.9,9.2,1.9,12.4,3.1V83.7z M431.9,69.3
			c3.8,0,6.7-0.8,8.8-2.6c2-1.7,3.6-4.2,4.7-7.6V25.3c-3.1-1.3-7-1.9-11.5-1.9c-5,0-8.9,1.9-11.7,5.6c-2.8,3.8-4.2,9.7-4.2,17.9
			c0,7.3,1.2,12.9,3.6,16.6C424,67.4,427.4,69.3,431.9,69.3z"/>
		<path class="st1" d="M169.8,83.3c-5.9,0-11.1-1-15.5-2.9c-4.4-1.9-8-4.6-10.9-8c-2.9-3.4-5-7.5-6.5-12.1c-1.5-4.6-2.2-9.6-2.2-15
			s0.7-10.4,2.2-15.1c1.5-4.7,3.6-8.8,6.5-12.2c2.9-3.4,6.5-6.1,10.9-8.1c4.4-2,9.5-3,15.5-3s11.1,1,15.5,3c4.4,2,8.1,4.7,11,8.1
			c2.9,3.4,5.1,7.5,6.5,12.2c1.4,4.7,2.1,9.7,2.1,15.1s-0.7,10.4-2.1,15c-1.4,4.6-3.6,8.6-6.5,12.1c-2.9,3.4-6.6,6.1-11,8
			C180.9,82.3,175.7,83.3,169.8,83.3z M169.8,68c5.3,0,9.1-2,11.4-5.9c2.3-3.9,3.5-9.5,3.5-16.9c0-7.3-1.2-13-3.5-16.9
			c-2.3-3.9-6.1-5.9-11.4-5.9c-5.2,0-8.9,2-11.2,5.9c-2.3,3.9-3.5,9.5-3.5,16.9c0,7.3,1.2,13,3.5,16.9C160.8,66.1,164.6,68,169.8,68
			z"/>
		<path class="st1" d="M205.3,8.4c0,0,3-1,11.1-1s11.1,1,11.1,1l16,54.6l15.8-54.5c0,0,3.3-1.1,10.7-1.1c7.4,0,10.7,1,10.7,1
			l-27.7,73.2c0,0-3.3,1-10.2,1c-6.9,0-10.2-1-10.2-1L205.3,8.4z"/>
		<path class="st1" d="M310.3,8.4v73.1c0,0-3.3,1-9.8,1s-9.8-1-9.8-1l0-73.1c0,0,4.1-1,9.6-1S310.3,8.4,310.3,8.4z"/>
		<path class="st0" d="M496,8.4v73.2c0,0-4,1-9.9,1c-5.9,0-9.7-1-9.7-1l0-73.2c0,0,4.1-1,9.6-1C491.5,7.3,496,8.4,496,8.4z"/>
		<path class="st0" d="M663.9,33.6c0-2.3-0.4-4.1-1.1-5.5c-0.8-1.4-1.8-2.5-3.1-3.3c-1.3-0.8-2.9-1.3-4.9-1.6
			c-1.9-0.3-4.1-0.4-6.4-0.4c-5.1,0-10.5,1-16.2,3c-1.3-2.4-2.3-4.8-3-6.9c-0.7-2.2-1-4.8-1-7.8c4.1-1.4,8.3-2.4,12.4-3.1
			c4.1-0.7,8-1,11.6-1c9.8,0,17.4,2.4,23,7.1c5.5,4.7,8.3,12.2,8.3,22.6v42.4c-3.3,1-7.3,2-12,3c-4.7,0.9-10,1.4-16,1.4
			c-4.8,0-9.2-0.4-13.2-1.3c-4-0.8-7.4-2.3-10.3-4.2c-2.9-2-5.1-4.5-6.6-7.6s-2.3-6.9-2.3-11.4s1-8.3,2.9-11.4
			c1.9-3.1,4.4-5.5,7.5-7.3c3.1-1.8,6.5-3.2,10.2-4c3.8-0.8,7.5-1.2,11.3-1.2c2.7,0,5.7,0.1,9,0.4V33.6z M663.9,48.1
			c-1.1-0.2-2.4-0.4-3.7-0.5c-1.3-0.1-2.5-0.2-3.5-0.2c-4.6,0-8.3,0.8-10.9,2.5c-2.7,1.6-4,4.3-4,8c0,2.4,0.5,4.3,1.6,5.6
			c1,1.3,2.3,2.3,3.7,2.9c1.5,0.6,3,1,4.7,1.1c1.6,0.1,3.1,0.2,4.3,0.2c1.4,0,2.8-0.1,4.2-0.4c1.4-0.2,2.6-0.4,3.7-0.6V48.1z"/>
		<path class="st0" d="M789,51.2c0.4,5.6,2.4,9.7,5.9,12.3c3.6,2.5,8.3,3.8,14.1,3.8c3.2,0,6.5-0.3,9.8-0.9c3.3-0.6,6.5-1.5,9.5-2.6
			c1,1.9,1.9,4.1,2.7,6.8c0.8,2.6,1.2,5.5,1.3,8.5c-7.3,2.8-15.6,4.2-24.9,4.2c-6.8,0-12.6-0.9-17.4-2.8c-4.9-1.9-8.8-4.5-11.9-7.8
			c-3.1-3.3-5.3-7.3-6.8-11.9c-1.5-4.6-2.2-9.6-2.2-15.1c0-5.4,0.8-10.4,2.3-15.1c1.5-4.7,3.7-8.8,6.7-12.3c3-3.5,6.6-6.2,11-8.3
			c4.4-2,9.5-3,15.3-3c5.1,0,9.6,0.9,13.6,2.7c4,1.8,7.3,4.2,10.1,7.3c2.8,3.1,4.9,6.8,6.3,11.1c1.4,4.3,2.1,8.9,2.1,13.8
			c0,1.8-0.1,3.6-0.2,5.3c-0.1,1.7-0.3,3.1-0.5,4.2H789z M817.6,37.2c-0.2-4.5-1.4-8.2-3.7-10.9c-2.3-2.8-5.5-4.2-9.7-4.2
			c-4.7,0-8.3,1.3-10.7,4c-2.4,2.6-3.9,6.4-4.4,11.2H817.6z"/>
		<polygon class="st1" points="6,39.3 6,81.7 6,123.9 82,81.6 		"/>
		<path class="st1" d="M103.6,6.8c-9.7,0-16.8,5.6-23.3,12.2C76.7,11.2,70.3,5.8,60,5.8C50.5,5.8,43.8,11,37.8,16h-0.6l-1.5-6.4
			c0,0-2.9-1.3-7.9-1.3S20,10,20,10v27l18,12V32.3c7-4.7,10.7-7.1,14.2-7.1C58.4,25.2,63,28.4,63,39v22.1l20,12V32.3
			c4-4.7,9.1-7.1,12.8-7.1c6.2,0,9.2,3.2,9.2,13.8v42.5c0,0,4.9,1,11,1c6.1,0,11-1,11-1V36.2C127,18,119.3,6.8,103.6,6.8z"/>
		<path class="st0" d="M551.1,81.6V39c0-10.6-2.8-13.8-8.9-13.8c-3.5,0-7.8,2.3-12.3,7v49.4c0,0-4.6,1-11.1,1s-10.4-1-10.4-1V8.4
			c0,0,4.1-1,8.9-1s8.7,1,8.7,1l1.5,9.6h0.6c6-6,12.5-11.1,22-11.1c10.3,0,16.4,4.4,20.1,12.2c6.5-6.6,13.2-12.2,22.9-12.2
			c15.7,0,22.7,11.1,22.7,29.3v45.4c0,0-5.2,1-11.3,1s-10.3-1-10.3-1V39c0-10.6-2.8-13.8-8.9-13.8c-3.7,0-7.8,2.3-12.5,7v49.4
			c0,0-4.5,1-10.9,1S551.1,81.6,551.1,81.6z"/>
		<path class="st1" d="M323.4,8.4c0,0,2.7-1,8.8-1c6.1,0,8.8,1,8.8,1l1.5,9.5h0.6c6.2-5.9,13.5-11,23.4-11
			c15.9,0,22.6,11.2,22.6,29.4v45.3c0,0-3.7,1-10.8,1s-10.8-1-10.8-1V39.1c0-10.6-2.8-13.8-9-13.8c-5.4,0-8.8,2.5-13.5,7.1v49.3
			c0,0-4,1-10.8,1s-10.8-1-10.8-1V8.4z"/>
	</g>
</g>
<g id="Ebene_2" class="st2">
	<g class="st3">
		<path class="st4" d="M759.6,83.2c0,10.9-2.9,18.9-8.8,24c-5.9,5.1-14.1,8.2-24.7,8.2c-8.3,0-12.9-1-17-2c-4.1-1-10.3-3.5-13.3-5.5
			l4.2-14.8c2.3,1.2,8.8,3.6,11.8,4.5c3,0.9,6.8,1.9,11.3,1.9c6.8,0,11.4-2,13.9-4.9c2.4-2.9,3.7-7.1,3.7-12.4v-4.8H740
			c-3.5,4.7-9.7,7-18.6,7c-9.7,0-16.9-3-21.6-9c-4.7-6-7.1-15.4-7.1-28.2c0-13.4,3.2-23.5,9.6-30.4c6.4-6.9,15.7-10.3,27.9-10.3
			c6.4,0,12.1,0.4,17.2,1.3c5,0.9,9.2,1.9,12.4,3.1V83.2z M726.7,68.8c3.8,0,6.7-0.8,8.8-2.5c2-1.7,3.6-4.2,4.7-7.6V24.9
			c-3.1-1.3-6.9-1.9-11.5-1.9c-5,0-8.9,1.9-11.7,5.6c-2.8,3.7-4.2,9.7-4.2,17.9c0,7.3,1.2,12.8,3.6,16.6
			C718.7,66.9,722.2,68.8,726.7,68.8z"/>
		<path class="st5" d="M464.4,82.8c0,10.9-2.9,18.9-8.8,24c-5.9,5.1-14.1,8.2-24.7,8.2c-8.3,0-12.9-1-17-2c-4.1-1-10.3-3.5-13.3-5.5
			l4.2-14.8c2.3,1.2,8.8,3.6,11.8,4.5c3,0.9,6.8,1.9,11.3,1.9c6.8,0,11.4-2,13.9-4.9c2.4-2.9,3.7-7.1,3.7-12.4v-4.8h-0.6
			c-3.5,4.7-9.7,7-18.6,7c-9.7,0-16.9-3-21.6-9c-4.7-6-7.1-15.4-7.1-28.2c0-13.4,3.2-23.5,9.6-30.4C413.4,9.5,422.7,6,434.9,6
			c6.4,0,12.1,0.4,17.2,1.3c5,0.9,9.2,1.9,12.4,3.1V82.8z M431.4,68.4c3.8,0,6.7-0.8,8.8-2.5c2-1.7,3.6-4.2,4.7-7.6V24.5
			c-3.1-1.3-6.9-1.9-11.5-1.9c-5,0-8.9,1.9-11.7,5.6c-2.8,3.7-4.2,9.7-4.2,17.9c0,7.3,1.2,12.8,3.6,16.6
			C423.5,66.5,426.9,68.4,431.4,68.4z"/>
		<path class="st5" d="M169.5,82.3c-5.9,0-11.1-1-15.4-2.9c-4.4-1.9-8-4.6-10.9-8c-2.9-3.4-5-7.5-6.5-12.1c-1.5-4.6-2.2-9.6-2.2-15
			s0.7-10.4,2.2-15.1c1.5-4.7,3.6-8.8,6.5-12.2c2.9-3.4,6.5-6.1,10.9-8.1c4.4-2,9.5-3,15.4-3s11.1,1,15.5,3c4.4,2,8.1,4.7,11,8.1
			c2.9,3.4,5.1,7.5,6.5,12.2c1.4,4.7,2.1,9.7,2.1,15.1s-0.7,10.3-2.1,15c-1.4,4.6-3.6,8.6-6.5,12.1c-2.9,3.4-6.6,6.1-11,8
			C180.6,81.4,175.4,82.3,169.5,82.3z M169.5,67.1c5.3,0,9.1-2,11.4-5.9c2.3-3.9,3.5-9.5,3.5-16.9c0-7.3-1.2-13-3.5-16.9
			c-2.3-3.9-6.1-5.9-11.4-5.9c-5.2,0-8.9,2-11.2,5.9c-2.3,3.9-3.5,9.5-3.5,16.9c0,7.3,1.2,13,3.5,16.9
			C160.6,65.1,164.3,67.1,169.5,67.1z"/>
		<path class="st5" d="M205,7.5c0,0,3-1,11.1-1c8.1,0,11.1,1,11.1,1l16,54.5L259,7.5c0,0,3.3-1.1,10.7-1.1c7.4,0,10.7,1,10.7,1
			l-27.6,73.1c0,0-3.3,1-10.2,1c-6.9,0-10.2-1-10.2-1L205,7.5z"/>
		<path class="st5" d="M309.9,7.5v73c0,0-3.3,1-9.8,1c-6.5,0-9.8-1-9.8-1l0-73c0,0,4.1-1,9.6-1S309.9,7.5,309.9,7.5z"/>
		<path class="st4" d="M495.4,7.5v73.1c0,0-4,1-9.9,1c-5.9,0-9.7-1-9.7-1l0-73.1c0,0,4.1-1,9.6-1S495.4,7.5,495.4,7.5z"/>
		<path class="st4" d="M663.1,32.7c0-2.3-0.4-4.1-1.1-5.5c-0.8-1.4-1.8-2.5-3.1-3.3c-1.3-0.8-2.9-1.3-4.9-1.6
			c-1.9-0.3-4.1-0.4-6.4-0.4c-5.1,0-10.5,1-16.2,3c-1.3-2.4-2.3-4.7-3-6.9c-0.7-2.2-1-4.7-1-7.8c4.1-1.4,8.3-2.4,12.4-3.1
			c4.1-0.7,8-1,11.6-1c9.8,0,17.4,2.4,22.9,7.1c5.5,4.7,8.3,12.2,8.3,22.6V78c-3.3,1-7.3,2-12,3c-4.7,0.9-10,1.4-15.9,1.4
			c-4.8,0-9.2-0.4-13.2-1.3c-4-0.8-7.4-2.3-10.3-4.2c-2.9-2-5.1-4.5-6.6-7.6c-1.6-3.1-2.3-6.9-2.3-11.4s1-8.3,2.9-11.4
			c1.9-3.1,4.4-5.5,7.5-7.3c3.1-1.8,6.5-3.1,10.2-3.9c3.8-0.8,7.5-1.2,11.3-1.2c2.7,0,5.7,0.1,9,0.4V32.7z M663.1,47.2
			c-1.1-0.2-2.4-0.4-3.7-0.5c-1.3-0.1-2.5-0.2-3.5-0.2c-4.6,0-8.3,0.8-10.9,2.5c-2.7,1.6-4,4.3-4,8c0,2.4,0.5,4.3,1.6,5.6
			c1,1.3,2.3,2.3,3.7,2.9c1.5,0.6,3,1,4.7,1.1c1.6,0.1,3.1,0.2,4.3,0.2c1.4,0,2.8-0.1,4.2-0.4c1.4-0.2,2.6-0.4,3.7-0.6V47.2z"/>
		<path class="st4" d="M788,50.3c0.4,5.6,2.3,9.7,5.9,12.3c3.6,2.5,8.3,3.8,14.1,3.8c3.2,0,6.5-0.3,9.8-0.9c3.3-0.6,6.5-1.5,9.5-2.6
			c1,1.9,1.9,4.1,2.7,6.8c0.8,2.6,1.2,5.5,1.3,8.5c-7.3,2.8-15.6,4.2-24.8,4.2c-6.8,0-12.6-0.9-17.4-2.8c-4.8-1.9-8.8-4.5-11.8-7.8
			c-3.1-3.3-5.3-7.3-6.8-11.9c-1.5-4.6-2.2-9.6-2.2-15.1c0-5.4,0.8-10.4,2.3-15.1c1.5-4.7,3.7-8.8,6.7-12.3c3-3.5,6.6-6.2,11-8.3
			c4.4-2,9.5-3,15.3-3c5.1,0,9.6,0.9,13.5,2.7c3.9,1.8,7.3,4.2,10.1,7.3c2.8,3.1,4.9,6.8,6.3,11.1c1.4,4.3,2.1,8.9,2.1,13.8
			c0,1.8-0.1,3.6-0.2,5.3c-0.1,1.7-0.3,3.1-0.5,4.2H788z M816.7,36.3c-0.2-4.5-1.4-8.2-3.7-10.9c-2.3-2.8-5.5-4.2-9.7-4.2
			c-4.7,0-8.3,1.3-10.7,3.9c-2.4,2.6-3.9,6.3-4.4,11.1H816.7z"/>
		<polygon class="st5" points="6,38.4 6,80.8 6,122.9 81.9,80.7 		"/>
		<path class="st5" d="M103,6c-9.7,0-16.6,5.6-23,12.2c-3.7-7.8-9.9-12.3-20.2-12.3C50.3,5.9,43.7,10,37.7,17h-0.6l-1.5-7.3
			c0,0-3.4-1.7-8.3-1.7S19,9.1,19,9.1v27l21,12V31.4c5-4.7,8.7-7.1,12.2-7.1c6.2,0,8.8,3.2,8.8,13.8v22l21,12V31.4
			c5-4.7,9.6-7.1,13.3-7.1c6.2,0,9.7,3.2,9.7,13.8v42.5c0,0,4.4,1,10.5,1c6.1,0,10.5-1,10.5-1V35.4C126,17.1,118.8,6,103,6z"/>
		<path class="st4" d="M550.4,80.6V38.1c0-10.5-2.8-13.8-8.9-13.8c-3.5,0-7.8,2.3-12.3,7v49.3c0,0-4.6,1-11.1,1s-10.4-1-10.4-1V7.5
			c0,0,4.1-1,8.9-1c4.8,0,8.7,1,8.7,1l1.5,9.6h0.6c6-6,12.4-11.1,22-11.1c10.3,0,16.4,4.4,20.1,12.2C575.7,11.6,582.5,6,592.1,6
			c15.7,0,22.7,11.1,22.7,29.3v45.3c0,0-5.2,1-11.3,1s-10.3-1-10.3-1V38.1c0-10.5-2.8-13.8-8.9-13.8c-3.7,0-7.8,2.3-12.4,7v49.3
			c0,0-4.5,1-10.9,1S550.4,80.6,550.4,80.6z"/>
		<path class="st5" d="M323,7.5c0,0,2.7-1,8.8-1s8.8,1,8.8,1l1.5,9.5h0.6c6.2-5.9,13.5-11,23.3-11c15.9,0,22.6,11.2,22.6,29.4v45.2
			c0,0-3.7,1-10.8,1c-7.1,0-10.8-1-10.8-1V38.2c0-10.6-2.8-13.8-9-13.8c-5.4,0-8.8,2.5-13.5,7v49.2c0,0-4,1-10.8,1
			c-6.8,0-10.8-1-10.8-1V7.5z"/>
	</g>
</g>
</svg>
