<?xml version="1.0" encoding="UTF-8" standalone="no"?>
<!DOCTYPE svg PUBLIC "-//W3C//DTD SVG 1.1//EN" "http://www.w3.org/Graphics/SVG/1.1/DTD/svg11.dtd">
<svg width="100%" height="100%" viewBox="0 0 32 32" version="1.1" xmlns="http://www.w3.org/2000/svg" xmlns:xlink="http://www.w3.org/1999/xlink" xml:space="preserve" xmlns:serif="http://www.serif.com/" style="fill-rule:evenodd;clip-rule:evenodd;stroke-linejoin:round;stroke-miterlimit:1.41421;">
    <path id="Rounded_Rectangle_6" d="M16.03,12.83L22.9,6C23.8,5.1 25.1,5.1 26,6C26.9,6.9 26.9,8.3 26,9.2L19.16,15.96L26,22.8C26.9,23.7 26.9,25.1 26.1,26C25.2,26.9 23.9,26.9 23,26L16.041,19.041L9.1,25.9C8.2,26.8 6.9,26.8 6,25.9C5.1,25 5.1,23.7 6,22.8L12.92,15.92L6.1,9.1C5.2,8.2 5.2,6.9 6.1,6C7,5.1 8.3,5.1 9.2,6L16.03,12.83Z" style="fill:rgb(204,204,204);fill-rule:nonzero;stroke:black;stroke-opacity:0.537255;stroke-width:0.5px;"/>
</svg>
