<?xml version="1.0" encoding="UTF-8" standalone="no"?>
<!DOCTYPE svg PUBLIC "-//W3C//DTD SVG 1.1//EN" "http://www.w3.org/Graphics/SVG/1.1/DTD/svg11.dtd">
<svg width="100%" height="100%" viewBox="0 0 32 32" version="1.1" xmlns="http://www.w3.org/2000/svg" xmlns:xlink="http://www.w3.org/1999/xlink" xml:space="preserve" xmlns:serif="http://www.serif.com/" style="fill-rule:evenodd;clip-rule:evenodd;stroke-linejoin:round;stroke-miterlimit:1.41421;">
    <path id="Shape_2" d="M23.3,15.2L9.8,5.6C9.5,5.4 9.1,5.3 8.8,5.5C8.5,5.7 8.3,6 8.3,6.3L8.3,25.6C8.3,26 8.5,26.3 8.9,26.5C9,26.6 9.2,26.6 9.3,26.6C9.5,26.6 9.7,26.5 9.9,26.4L23.3,16.7C23.6,16.5 23.7,16.2 23.7,15.9C23.6,15.7 23.5,15.3 23.3,15.2ZM10.3,23.6L10.3,8.4L21,16L10.3,23.6Z" style="fill:rgb(204,204,204);fill-rule:nonzero;stroke:black;stroke-opacity:0.541176;stroke-width:0.5px;"/>
    <path d="M10.3,23.6L10.3,8.4L21,16L10.3,23.6Z" style="fill:none;"/>
</svg>
