<?xml version="1.0" encoding="UTF-8" standalone="no"?>
<!DOCTYPE svg PUBLIC "-//W3C//DTD SVG 1.1//EN" "http://www.w3.org/Graphics/SVG/1.1/DTD/svg11.dtd">
<svg width="100%" height="100%" viewBox="0 0 32 32" version="1.1" xmlns="http://www.w3.org/2000/svg" xmlns:xlink="http://www.w3.org/1999/xlink" xml:space="preserve" xmlns:serif="http://www.serif.com/" style="fill-rule:evenodd;clip-rule:evenodd;stroke-linejoin:round;stroke-miterlimit:1.41421;">
    <path id="Rectangle_8" d="M27.1,5.3L4.9,5.3C3.6,5.3 2.5,6.4 2.5,7.7L2.5,19.6C2.5,20.9 3.6,22 4.9,22L8.5,22L8.5,19.6L4.9,19.6L4.9,7.7L27,7.7L27,19.6L23.4,19.6L23.4,22L27,22C28.3,22 29.4,20.9 29.4,19.6L29.4,7.7C29.4,6.4 28.4,5.3 27.1,5.3Z" style="fill:white;fill-rule:nonzero;stroke:black;stroke-opacity:0.541176;stroke-width:0.5px;"/>
    <path id="Shape_5" d="M22.9,24.8L17,16.5C16.8,16.3 16.4,16 16,16C15.6,16 15.3,16.2 15,16.5L9.1,24.8C8.9,25.2 8.9,25.6 9,26C9.2,26.4 9.6,26.6 10.1,26.6L22,26.6C22.5,26.6 22.8,26.4 23.1,26C23.2,25.9 23.2,25.8 23.2,25.5C23.1,25.3 23,25 22.9,24.8ZM12.3,24.3L16,19.2L19.7,24.3L12.3,24.3Z" style="fill:white;fill-rule:nonzero;stroke:black;stroke-opacity:0.541176;stroke-width:0.5px;"/>
</svg>
