<?xml version="1.0" encoding="UTF-8" standalone="no"?>
<!DOCTYPE svg PUBLIC "-//W3C//DTD SVG 1.1//EN" "http://www.w3.org/Graphics/SVG/1.1/DTD/svg11.dtd">
<svg width="100%" height="100%" viewBox="0 0 71 58" version="1.1" xmlns="http://www.w3.org/2000/svg" xmlns:xlink="http://www.w3.org/1999/xlink" xml:space="preserve" xmlns:serif="http://www.serif.com/" style="fill-rule:evenodd;clip-rule:evenodd;stroke-linejoin:round;stroke-miterlimit:1.41421;">
    <g id="g1" transform="matrix(1,0,0,1,-2.90767,-9.47776)">
        <g opacity="0.796545">
            <g transform="matrix(1,0,0,1,0,-0.201849)">
                <path d="M37.981,12.024C40.496,12.155 40.945,16.024 41.311,18.768C41.409,19.496 41.492,20.227 41.567,20.958C41.649,21.767 41.721,22.576 41.784,23.387C42.713,35.294 43.036,47.37 41.129,59.075C41.065,59.468 40.995,59.861 40.917,60.252C40.864,60.517 40.807,60.78 40.745,61.043C40.697,61.243 40.646,61.442 40.591,61.641C40.197,63.056 39.296,64.765 37.356,64.431C35.204,64.061 33.42,62.312 31.713,60.653C27.987,57.031 24.791,52.874 21.741,48.644L21.602,48.449L5.25,48.449L5.25,27.856L21.846,27.856C25.654,22.499 29.505,16.927 34.745,13.291C35.735,12.604 36.618,11.996 37.981,12.024ZM37.85,13.522C36.05,13.594 34.481,15.295 33.041,16.679C29.34,20.232 26.204,24.352 23.201,28.539L22.624,29.356L6.75,29.356L6.75,46.949L22.377,46.949C26.097,52.207 29.897,57.562 34.884,61.457C36.291,62.556 38.153,64.008 38.917,61.954C39.944,59.197 40.062,56.095 40.3,53.037C41.206,41.392 41.454,29.483 39.686,18.001C39.587,17.353 39.473,16.706 39.331,16.066C39.289,15.874 39.244,15.683 39.195,15.494C39.152,15.325 39.105,15.158 39.055,14.991C39.019,14.874 38.982,14.758 38.941,14.643C38.914,14.567 38.886,14.491 38.856,14.416C38.686,13.987 38.4,13.517 37.85,13.522Z" style="fill:white;fill-rule:nonzero;stroke:black;stroke-opacity:0.807843;stroke-width:0.5px;"/>
            </g>
            <path d="M48.093,26.829C48.855,26.92 48.783,27.343 48.96,27.635C52.863,34.209 52.835,42.833 48.766,49.424C48.766,49.424 48.537,49.718 48.262,49.768C47.611,49.886 47.167,49.187 47.748,48.21C51.33,42.071 51.262,34.109 47.408,27.976C47.408,27.976 47.124,26.814 48.093,26.829Z" style="fill:white;fill-rule:nonzero;stroke:black;stroke-opacity:0.807843;stroke-width:0.5px;"/>
            <path d="M55.171,19.792C55.854,19.921 55.653,20.041 56.035,20.573C63.265,30.838 63.432,45.453 56.297,55.797C55.978,56.26 55.698,56.833 55.168,56.826C54.609,56.819 54.192,56.241 54.571,55.635C54.737,55.406 54.737,55.407 54.901,55.176C61.875,45.171 61.905,31.105 54.477,20.981C54.477,20.981 54.197,19.744 55.171,19.792Z" style="fill:white;fill-rule:nonzero;stroke:black;stroke-opacity:0.807843;stroke-width:0.5px;"/>
            <path d="M61.695,13.265C62.142,13.353 62.405,13.805 62.698,14.187C69.926,23.697 72.586,36.528 69.683,48.095C68.35,53.406 65.888,58.44 62.548,62.756C61.311,64.356 60.622,62.895 61.12,62.148C71.711,48.673 72.045,28.383 61.021,14.476C61.021,14.476 60.69,13.228 61.695,13.265Z" style="fill:white;fill-rule:nonzero;stroke:black;stroke-opacity:0.807843;stroke-width:0.5px;"/>
        </g>
    </g>
</svg>
