<?xml version="1.0" encoding="UTF-8" standalone="no"?>
<!DOCTYPE svg PUBLIC "-//W3C//DTD SVG 1.1//EN" "http://www.w3.org/Graphics/SVG/1.1/DTD/svg11.dtd">
<svg width="100%" height="100%" viewBox="0 0 32 32" version="1.1" xmlns="http://www.w3.org/2000/svg" xmlns:xlink="http://www.w3.org/1999/xlink" xml:space="preserve" xmlns:serif="http://www.serif.com/" style="fill-rule:evenodd;clip-rule:evenodd;stroke-linejoin:round;stroke-miterlimit:1.41421;">
    <circle id="Ellipse_1" cx="16" cy="16" r="5.5" style="fill:white;fill-opacity:0.302;"/>
    <g id="Ellipse_1_copy" transform="matrix(1,0,0,1,-0.5,-0.5)">
        <path d="M16.5,8C11.8,8 8,11.8 8,16.5C8,21.2 11.8,25 16.5,25C21.2,25 25,21.2 25,16.5C25,11.8 21.2,8 16.5,8ZM16.5,21C14,21 12,19 12,16.5C12,14 14,12 16.5,12C19,12 21,14 21,16.5C21,19 19,21 16.5,21Z" style="fill:white;stroke:black;stroke-opacity:0.533333;stroke-width:0.5px;"/>
    </g>
</svg>
