<?xml version="1.0" encoding="UTF-8" standalone="no"?>
<!DOCTYPE svg PUBLIC "-//W3C//DTD SVG 1.1//EN" "http://www.w3.org/Graphics/SVG/1.1/DTD/svg11.dtd">
<svg width="100%" height="100%" viewBox="0 0 32 32" version="1.1" xmlns="http://www.w3.org/2000/svg" xmlns:xlink="http://www.w3.org/1999/xlink" xml:space="preserve" xmlns:serif="http://www.serif.com/" style="fill-rule:evenodd;clip-rule:evenodd;stroke-linejoin:round;stroke-miterlimit:1.41421;">
    <g id="Rectangle_6" transform="matrix(1,0,0,1,3,0)">
        <path d="M4.7,7.7L9.4,7.7L9.4,5.4L4.7,5.4C3.4,5.4 2.3,6.5 2.3,7.8L2.3,12.5L4.7,12.5L4.7,7.7Z" style="fill:white;fill-rule:nonzero;"/>
    </g>
    <g id="Rectangle_6_copy" transform="matrix(1,0,0,1,3,0)">
        <path d="M4.7,19.5L2.4,19.5L2.4,24.2C2.4,25.5 3.5,26.6 4.8,26.6L9.5,26.6L9.5,24.2L4.7,24.2L4.7,19.5Z" style="fill:white;fill-rule:nonzero;"/>
    </g>
    <g id="Rectangle_6_copy_2" transform="matrix(1,0,0,1,-3,0)">
        <path d="M27.3,5.4L22.6,5.4L22.6,7.8L27.3,7.8L27.3,12.5L29.7,12.5L29.7,7.7C29.6,6.4 28.6,5.4 27.3,5.4Z" style="fill:white;fill-rule:nonzero;"/>
    </g>
    <g id="Rectangle_6_copy_3" transform="matrix(1,0,0,1,-3,0)">
        <path d="M27.3,24.3L22.6,24.3L22.6,26.7L27.3,26.7C28.6,26.7 29.7,25.6 29.7,24.3L29.7,19.6L27.3,19.6L27.3,24.3Z" style="fill:white;fill-rule:nonzero;"/>
    </g>
</svg>
