<?xml version="1.0" encoding="UTF-8" standalone="no"?>
<!DOCTYPE svg PUBLIC "-//W3C//DTD SVG 1.1//EN" "http://www.w3.org/Graphics/SVG/1.1/DTD/svg11.dtd">
<svg width="100%" height="100%" viewBox="0 0 32 32" version="1.1" xmlns="http://www.w3.org/2000/svg" xmlns:xlink="http://www.w3.org/1999/xlink" xml:space="preserve" xmlns:serif="http://www.serif.com/" style="fill-rule:evenodd;clip-rule:evenodd;stroke-linejoin:round;stroke-miterlimit:1.41421;">
    <g>
        <path id="Rounded_Rectangle_3" d="M22.2,14.6L24.9,11.9C25.3,11.5 25.9,11.5 26.3,11.9C26.7,12.3 26.7,12.9 26.3,13.3L23.6,16L26.3,18.7C26.7,19.1 26.7,19.7 26.3,20.1C25.9,20.5 25.3,20.5 24.9,20.1L22.2,17.4L19.5,20.1C19.1,20.5 18.5,20.5 18.1,20.1C17.7,19.7 17.7,19.1 18.1,18.7L20.8,16L18.1,13.3C17.7,12.9 17.7,12.3 18.1,11.9C18.5,11.5 19.1,11.5 19.5,11.9L22.2,14.6Z" style="fill:white;fill-rule:nonzero;stroke:black;stroke-opacity:0.541176;stroke-width:0.5px;"/>
    </g>
    <g>
        <path id="Rectangle_2_copy_4" d="M8.3,13.1L8.3,12.6L18.2,5.5C18.5,5.3 19,5.2 19.3,5.4C19.7,5.6 19.9,5.9 20,6.3L20,10.3L17.9,10.3L17.9,8.2L11.083,13.1L12.2,13.1C13.2,13.1 14.1,14 14.1,15L14.1,17C14.1,18 13.3,18.9 12.2,18.9L11.317,18.9L17.9,23.7L17.9,21.7L20,21.6L20,25.5C20,25.9 19.7,26.2 19.4,26.4C19.2,26.5 19.1,26.5 18.9,26.5C18.7,26.5 18.5,26.4 18.3,26.3L8.3,19.2L8.3,18.9L6.4,18.9C5.4,18.9 4.5,18.1 4.5,17L4.5,15C4.5,14 5.3,13.1 6.4,13.1L8.3,13.1ZM8.439,15L8.3,15.1L8.3,15L6.4,15L6.4,17L8.3,17L8.3,16.7L8.711,17L12.2,17L12.2,15L8.439,15Z" style="fill:white;fill-rule:nonzero;stroke:black;stroke-opacity:0.541176;stroke-width:0.5px;"/>
    </g>
</svg>
