<?xml version="1.0" encoding="UTF-8" standalone="no"?>
<!DOCTYPE svg PUBLIC "-//W3C//DTD SVG 1.1//EN" "http://www.w3.org/Graphics/SVG/1.1/DTD/svg11.dtd">
<svg width="100%" height="100%" viewBox="0 0 32 32" version="1.1" xmlns="http://www.w3.org/2000/svg" xmlns:xlink="http://www.w3.org/1999/xlink" xml:space="preserve" xmlns:serif="http://www.serif.com/" style="fill-rule:evenodd;clip-rule:evenodd;stroke-linejoin:round;stroke-miterlimit:1.41421;">
    <path id="Rectangle_4" d="M8.3,13.1L8.3,12.7L18.2,5.6C18.5,5.4 19,5.3 19.3,5.5C19.7,5.7 19.9,6 20,6.3L20,25.5C20,25.9 19.7,26.2 19.4,26.4C19.2,26.5 19.1,26.5 18.9,26.5C18.7,26.5 18.5,26.4 18.3,26.3L8.3,19.2L8.3,18.9L6.4,18.9C5.4,18.9 4.5,18.1 4.5,17L4.5,15C4.5,14 5.3,13.1 6.4,13.1L8.3,13.1ZM11.222,13.1L12.2,13.1C13.2,13.1 14.1,14 14.1,15L14.1,17C14.1,18 13.3,18.9 12.2,18.9L11.317,18.9L17.9,23.7L17.9,8.3L11.222,13.1ZM8.578,15L8.3,15.2L8.3,15L6.4,15L6.4,17L8.3,17L8.3,16.7L8.711,17L12.2,17L12.2,15L8.578,15Z" style="fill:rgb(204,204,204);fill-rule:nonzero;stroke:black;stroke-opacity:0.537255;stroke-width:0.58px;"/>
    <path id="Rounded_Rectangle_4" d="M23.7,12.1C23.1,12.1 22.7,12.5 22.7,13.1L22.7,18.9C22.7,19.5 23.1,19.9 23.7,19.9C24.3,19.9 24.7,19.5 24.7,18.9L24.7,13.1C24.7,12.5 24.3,12.1 23.7,12.1Z" style="fill:rgb(204,204,204);fill-rule:nonzero;stroke:black;stroke-opacity:0.537255;stroke-width:0.5px;"/>
    <path d="M9.3,12.7L9.3,14.3L5.8,14.3L5.8,17.7L9.3,17.7L9.3,19.3L18.7,25.2L18.7,6.5L9.3,12.7Z" style="fill:none;"/>
</svg>
