<?xml version="1.0" encoding="UTF-8" standalone="no"?>
<!DOCTYPE svg PUBLIC "-//W3C//DTD SVG 1.1//EN" "http://www.w3.org/Graphics/SVG/1.1/DTD/svg11.dtd">
<svg width="100%" height="100%" viewBox="0 0 32 32" version="1.1" xmlns="http://www.w3.org/2000/svg" xmlns:xlink="http://www.w3.org/1999/xlink" xml:space="preserve" xmlns:serif="http://www.serif.com/" style="fill-rule:evenodd;clip-rule:evenodd;stroke-linejoin:round;stroke-miterlimit:1.41421;">
    <path id="Rectangle_2_copy_3_1_" d="M24.2,5.4L21.8,5.4C20.5,5.4 19.4,6.5 19.4,7.8L19.4,24.3C19.4,25.6 20.5,26.7 21.8,26.7L24.2,26.7C25.5,26.7 26.6,25.6 26.6,24.3L26.6,7.7C26.5,6.4 25.5,5.4 24.2,5.4ZM24.2,24.3L21.8,24.3L21.8,7.7L24.2,7.7L24.2,24.3Z" style="fill:white;fill-rule:nonzero;stroke:black;stroke-opacity:0.541176;stroke-width:0.5px;"/>
    <path id="Shape_3_1_" d="M21.3,14.9L8.5,5.5C8,5.4 7.5,5.3 7.2,5.5C6.7,5.7 6.5,6.2 6.5,6.6L6.5,25.4C6.5,25.9 6.7,26.3 7.2,26.5C7.3,26.7 7.6,26.7 7.7,26.7C7.9,26.7 8.2,26.6 8.4,26.5L21.3,17.1C21.7,16.9 21.8,16.5 21.8,16C21.7,15.4 21.6,15.2 21.3,14.9ZM8.9,23L8.9,9L18.5,16L8.9,23Z" style="fill:white;fill-rule:nonzero;stroke:black;stroke-opacity:0.541176;stroke-width:0.5px;"/>
</svg>
