<?xml version="1.0" encoding="UTF-8" standalone="no"?>
<!DOCTYPE svg PUBLIC "-//W3C//DTD SVG 1.1//EN" "http://www.w3.org/Graphics/SVG/1.1/DTD/svg11.dtd">
<svg width="100%" height="100%" viewBox="0 0 32 32" version="1.1" xmlns="http://www.w3.org/2000/svg" xmlns:xlink="http://www.w3.org/1999/xlink" xml:space="preserve" xmlns:serif="http://www.serif.com/" style="fill-rule:evenodd;clip-rule:evenodd;stroke-linejoin:round;stroke-miterlimit:1.41421;">
    <path id="Rectangle_2_copy" d="M11.3,5.4L8.9,5.4C7.6,5.4 6.5,6.5 6.5,7.8L6.5,24.3C6.5,25.6 7.6,26.7 8.9,26.7L11.3,26.7C12.6,26.7 13.7,25.6 13.7,24.3L13.7,7.7C13.6,6.4 12.6,5.4 11.3,5.4ZM11.3,24.3L8.9,24.3L8.9,7.7L11.3,7.7L11.3,24.3Z" style="fill:rgb(204,204,204);fill-rule:nonzero;stroke:black;stroke-opacity:0.541176;stroke-width:0.5px;"/>
    <path id="Rectangle_2_copy_2" d="M23.1,5.4L20.7,5.4C19.4,5.4 18.3,6.5 18.3,7.8L18.3,24.3C18.3,25.6 19.4,26.7 20.7,26.7L23.1,26.7C24.4,26.7 25.5,25.6 25.5,24.3L25.5,7.7C25.4,6.4 24.4,5.4 23.1,5.4ZM23.1,24.3L20.7,24.3L20.7,7.7L23.1,7.7L23.1,24.3Z" style="fill:rgb(204,204,204);fill-rule:nonzero;stroke:black;stroke-opacity:0.541176;stroke-width:0.5px;"/>
    <rect x="20.7" y="7.7" width="2.4" height="16.6" style="fill:none;"/>
    <rect x="8.9" y="7.7" width="2.4" height="16.6" style="fill:none;"/>
</svg>
