<?xml version="1.0" encoding="UTF-8" standalone="no"?>
<!DOCTYPE svg PUBLIC "-//W3C//DTD SVG 1.1//EN" "http://www.w3.org/Graphics/SVG/1.1/DTD/svg11.dtd">
<svg width="100%" height="100%" viewBox="0 0 32 32" version="1.1" xmlns="http://www.w3.org/2000/svg" xmlns:xlink="http://www.w3.org/1999/xlink" xml:space="preserve" xmlns:serif="http://www.serif.com/" style="fill-rule:evenodd;clip-rule:evenodd;stroke-linejoin:round;stroke-miterlimit:1.41421;">
    <g>
        <path id="Rectangle_512" d="M5,8.3L24.8,8.3L24.8,13.8L27,13.8L27,8.3C27,7.1 26,6.1 24.8,6.1L5,6.1C3.8,6.1 2.8,7.1 2.8,8.3L2.8,20.4C2.8,21.6 3.8,22.6 5,22.6L12.7,22.6L12.7,20.4L5,20.4L5,8.3ZM14.9,16L14.9,25.9L29.2,25.9L29.2,16L14.9,16Z" style="fill:white;fill-rule:nonzero;stroke:black;stroke-opacity:0.541176;stroke-width:0.5px;"/>
        <path id="Rectangle_513" d="M7.2,16L12.7,16L12.7,10.5L10.5,10.5L10.5,13.8L7.2,13.8L7.2,16Z" style="fill:white;fill-rule:nonzero;stroke:black;stroke-opacity:0.541176;stroke-width:0.5px;"/>
    </g>
</svg>
