<?xml version="1.0" encoding="UTF-8" standalone="no"?>
<!DOCTYPE svg PUBLIC "-//W3C//DTD SVG 1.1//EN" "http://www.w3.org/Graphics/SVG/1.1/DTD/svg11.dtd">
<svg width="100%" height="100%" viewBox="0 0 80 80" version="1.1" xmlns="http://www.w3.org/2000/svg" xmlns:xlink="http://www.w3.org/1999/xlink" xml:space="preserve" xmlns:serif="http://www.serif.com/" style="fill-rule:evenodd;clip-rule:evenodd;stroke-linejoin:round;stroke-miterlimit:1.41421;">
    <path d="M40,73.5C21.5,73.5 6.5,58.5 6.5,40C6.5,21.5 21.5,6.5 40,6.5C58.5,6.5 73.5,21.5 73.5,40C73.5,58.5 58.5,73.5 40,73.5Z" style="fill:none;"/>
    <path id="Ellipse_3_copy_2" d="M40,5C20.7,5 5,20.7 5,40C5,59.3 20.7,75 40,75C59.3,75 75,59.3 75,40C75,20.7 59.3,5 40,5ZM40,72C22.3,72 8,57.7 8,40C8,22.3 22.3,8 40,8C57.7,8 72,22.3 72,40C72,57.7 57.7,72 40,72Z" style="fill:rgb(204,204,204);fill-rule:nonzero;stroke:black;stroke-opacity:0.541176;stroke-width:0.5px;"/>
    <path id="Ellipse_3" d="M54,40.3C54,40.2 54,40.1 54,40L53.9,40C53.7,39.4 53.1,39 52.5,39C51.9,39 51.3,39.4 51.1,40L51,40C51,46.1 46.1,51 40,51C33.9,51 29,46.1 29,40C29,33.9 33.9,29 40,29C40.7,29 41.4,29.1 42,29.2L42,32.5C42,32.7 42.1,32.8 42.3,32.9C42.4,32.9 42.5,33 42.6,33C42.7,33 42.8,33 42.9,32.9L50.7,28.4C50.9,28.3 50.9,28.2 50.9,28C50.9,27.8 50.8,27.7 50.7,27.6L42.9,23.1C42.7,23 42.5,23 42.3,23.1C42.1,23.2 42,23.3 42,23.5L42,26.2C41.3,26.1 40.7,26 40,26C32.3,26 26,32.3 26,40C26,47.7 32.3,54 40,54C47.4,54 53.5,48.2 54,40.8C54,40.7 54,40.6 54,40.5C54,40.4 54,40.4 54,40.3Z" style="fill:rgb(204,204,204);fill-rule:nonzero;stroke:black;stroke-opacity:0.541176;stroke-width:0.5px;"/>
</svg>
