<?xml version="1.0" encoding="UTF-8" standalone="no"?>
<!DOCTYPE svg PUBLIC "-//W3C//DTD SVG 1.1//EN" "http://www.w3.org/Graphics/SVG/1.1/DTD/svg11.dtd">
<svg width="100%" height="100%" viewBox="0 0 32 32" version="1.1" xmlns="http://www.w3.org/2000/svg" xmlns:xlink="http://www.w3.org/1999/xlink" xml:space="preserve" xmlns:serif="http://www.serif.com/" style="fill-rule:evenodd;clip-rule:evenodd;stroke-linejoin:round;stroke-miterlimit:1.41421;">
    <path id="Ellipse_1_copy" d="M23.6,12.9C23.1,11.8 22.9,10.7 22.2,9.9C21.3,9 20,8.7 18.9,8.3C17.9,7.9 17.2,7.3 16,7.3C14.8,7.3 13.9,8 12.8,8.4C11.7,8.9 10.7,9.1 9.8,9.8C8.9,10.6 8.8,11.6 8.4,12.7C8,13.8 7.3,14.7 7.3,16C7.3,17.3 7.9,18 8.3,19.1C8.8,20.2 9.1,21.4 9.9,22.2C10.7,23 11.7,23.2 12.8,23.6C13.9,24 14.8,24.7 16,24.7C17.2,24.7 18.3,24 19.4,23.5C20.5,23.1 21.3,22.9 22.2,22.1C23.1,21.2 23.3,20.2 23.6,19C24,18 24.8,17 24.8,15.9C24.7,14.8 24,13.9 23.6,12.9ZM16,19.9C13.9,19.9 12.1,18.2 12.1,16C12.1,13.8 13.8,12.1 16,12.1C18.2,12.1 19.9,13.8 19.9,16C19.9,18.2 18.1,19.9 16,19.9Z" style="fill:none;"/>
    <path id="Shape_4_1_" d="M25.6,13.8L24.2,13.5C24,13 23.8,12.5 23.6,12.1L24.5,10.8C24.9,10.3 24.8,9.5 24.4,9.1L23,7.7C22.7,7.4 22.4,7.3 22,7.3C21.7,7.3 21.4,7.4 21.2,7.6L20,8.5C19.5,8.2 19,8 18.5,7.9L18.2,6.5C18.2,5.9 17.6,5.4 16.9,5.4L15,5.4C14.3,5.4 13.8,5.9 13.7,6.5L13.5,8C13,8.2 12.5,8.4 12.1,8.6L10.8,7.7C10.6,7.5 10.3,7.4 10,7.4C9.6,7.4 9.3,7.5 9,7.8L7.8,9.1C7.3,9.6 7.3,10.3 7.7,10.8L8.6,12.1C8.3,12.6 8.1,13.1 8,13.5L6.6,13.8C5.9,13.8 5.4,14.4 5.4,15.1L5.4,17C5.4,17.7 5.9,18.2 6.5,18.3L8,18.5C8.2,19 8.4,19.5 8.6,19.9L7.7,21.2C7.3,21.7 7.4,22.5 7.8,22.9L9.2,24.3C9.5,24.6 9.8,24.7 10.2,24.7C10.5,24.7 10.8,24.6 11,24.4L12.3,23.5C12.8,23.7 13.3,23.9 13.7,24.1L14,25.5C14.1,26.2 14.7,26.6 15.3,26.6L17,26.6C17.7,26.6 18.2,26.1 18.3,25.5L18.6,24.1C19.1,23.9 19.6,23.7 20,23.5L21.3,24.4C21.5,24.6 21.8,24.7 22.1,24.7C22.5,24.7 22.8,24.6 23.1,24.3L24.5,22.9C25,22.4 25,21.7 24.6,21.2L23.5,20C23.8,19.5 24,19 24.1,18.6L25.5,18.3C26.2,18.2 26.6,17.6 26.6,17L26.6,15C26.6,14.5 26.1,13.9 25.6,13.8ZM24.6,16.9C24.6,17 24.6,17 24.6,16.9L22.8,17.3C22.6,17.3 22.4,17.5 22.4,17.7C22.2,18.3 22,18.9 21.7,19.3C21.6,19.5 21.6,19.7 21.7,19.9L22.7,21.3L22.7,21.4L21.5,22.6L21.4,22.6L21.3,22.6L19.9,21.6C19.7,21.5 19.5,21.5 19.3,21.6C18.8,21.9 18.2,22.2 17.7,22.3C17.5,22.4 17.3,22.5 17.3,22.7L17,24.5C17,24.6 16.9,24.6 16.9,24.6L15.2,24.6C15.1,24.6 15.1,24.6 15.1,24.5L14.8,22.8C14.8,22.6 14.6,22.4 14.4,22.4C13.8,22.2 13.2,22 12.8,21.7C12.7,21.7 12.6,21.6 12.5,21.6C12.4,21.6 12.3,21.6 12.2,21.7L10.8,22.7L10.7,22.7L10.6,22.7L9.4,21.5L9.4,21.4L10.4,20C10.5,19.8 10.5,19.6 10.4,19.4C10,19 9.7,18.4 9.6,17.8C9.5,17.6 9.4,17.4 9.2,17.4L7.5,17C7.4,17 7.4,16.9 7.4,16.9L7.4,15.2C7.4,15.1 7.4,15.1 7.5,15.1L9.2,14.9C9.4,14.9 9.6,14.7 9.7,14.5C9.9,13.9 10.1,13.3 10.4,12.9C10.5,12.7 10.5,12.5 10.4,12.3L9.4,10.9L9.4,10.8L10.6,9.6L10.8,9.6L12.2,10.6C12.4,10.7 12.6,10.7 12.8,10.6C13.3,10.3 13.9,10 14.4,9.9C14.6,9.8 14.8,9.7 14.8,9.5L15,7.5C15,7.4 15.1,7.4 15.1,7.4L16.8,7.4C16.9,7.4 16.9,7.4 16.9,7.5L17.1,9.2C17.1,9.4 17.3,9.6 17.5,9.7C18.1,9.9 18.7,10.1 19.2,10.4C19.4,10.5 19.6,10.5 19.8,10.4L21.2,9.4L21.4,9.4L22.6,10.6L22.6,10.7L21.6,12.1C21.5,12.3 21.5,12.5 21.6,12.7C21.9,13.2 22.2,13.8 22.3,14.3C22.4,14.5 22.5,14.7 22.7,14.7L24.3,15C24.4,15 24.4,15.1 24.4,15.1L24.4,16.9L24.6,16.9ZM16,11.5C13.5,11.5 11.5,13.5 11.5,16C11.5,18.5 13.5,20.5 16,20.5C18.5,20.5 20.5,18.5 20.5,16C20.5,13.5 18.5,11.5 16,11.5ZM16,18.8C14.5,18.8 13.2,17.5 13.2,16C13.2,14.5 14.5,13.2 16,13.2C17.5,13.2 18.8,14.5 18.8,16C18.8,17.5 17.5,18.8 16,18.8Z" style="fill:rgb(204,204,204);fill-rule:nonzero;stroke:black;stroke-opacity:0.541176;stroke-width:0.5px;"/>
</svg>
